<svg width="13" height="18" viewBox="0 0 13 18" fill="none" xmlns="http://www.w3.org/2000/svg">
<g id="pdf 2" clip-path="url(#clip0_163_11678)">
<g id="Capa 2">
<g id="Capa 1">
<path id="Vector" d="M8.57575 18H0.272049C0.236294 18 0.20089 17.9927 0.167861 17.9784C0.134832 17.9642 0.104826 17.9433 0.0795593 17.9171C0.0542927 17.8908 0.034261 17.8595 0.0206095 17.8252C0.00695811 17.7909 -4.51553e-05 17.754 2.19081e-07 17.7169V0.283117C-4.51553e-05 0.245955 0.00695811 0.209147 0.0206095 0.1748C0.034261 0.140453 0.0542927 0.109239 0.0795593 0.0829448C0.104826 0.0566502 0.134832 0.0357903 0.167861 0.021558C0.20089 0.0073256 0.236294 -2.99242e-08 0.272049 0L12.7276 0C12.7635 4.70411e-05 12.7989 0.00743787 12.832 0.0217498C12.8651 0.0360618 12.8952 0.0570141 12.9205 0.0834086C12.9458 0.109803 12.9658 0.141122 12.9795 0.175574C12.9931 0.210027 13.0001 0.246937 13 0.284194L12.952 13.4041C12.9518 13.4782 12.9235 13.5492 12.8733 13.6018L8.76909 17.9157C8.74385 17.9424 8.71377 17.9636 8.68057 17.978C8.64738 17.9925 8.61175 18 8.57575 18ZM0.544443 17.4338H8.46182L12.4079 13.2864L12.4538 0.565875H0.543062L0.544443 17.4338Z" fill="#FF0000"/>
<path id="Vector_2" d="M8.57527 17.9996C8.53952 17.9996 8.50411 17.9923 8.47108 17.978C8.43805 17.9638 8.40805 17.9429 8.38278 17.9166C8.35752 17.8904 8.33748 17.8591 8.32383 17.8248C8.31018 17.7904 8.30318 17.7536 8.30322 17.7165V15.5682C8.30322 13.8748 9.02167 13.1191 10.6326 13.1191H12.6795C12.7332 13.1191 12.7858 13.1356 12.8305 13.1666C12.8753 13.1976 12.9102 13.2416 12.9309 13.2932C12.9516 13.3448 12.9572 13.4015 12.9469 13.4564C12.9366 13.5112 12.911 13.5617 12.8732 13.6014L8.76895 17.9153C8.74374 17.9421 8.7136 17.9633 8.68033 17.9778C8.64707 17.9923 8.61134 17.9997 8.57527 17.9996ZM10.6332 13.6857C9.33238 13.6857 8.8487 14.1956 8.8487 15.5682V17.0272L12.0277 13.6857H10.6332Z" fill="#FF0000"/>
<path id="Vector_3" d="M10.4538 9.34336C10.0112 9.34336 9.47124 9.40974 8.84256 9.53103C7.96599 8.54532 7.05352 7.12292 6.40724 5.71989C7.04489 2.88513 6.72658 2.48504 6.58469 2.29952C6.43417 2.09571 6.22184 1.76953 5.98259 1.76953C5.81786 1.77926 5.65458 1.80704 5.49546 1.85242C5.21236 1.95505 5.07081 2.17824 4.94687 2.46674C4.60992 3.30102 5.0791 4.71517 5.54862 5.81283C5.14159 7.52337 4.45974 9.5583 3.73405 11.2229C1.91912 12.0959 0.953485 12.951 0.873735 13.7706C0.839211 14.0677 0.908259 14.5041 1.40506 14.8945C1.53543 15.004 1.6983 15.0632 1.86595 15.062C2.29094 15.062 2.70696 14.7272 3.20238 14.0021C3.55728 13.4724 3.94637 12.7569 4.34443 11.8645C5.62734 11.2775 7.21544 10.7389 8.57638 10.4417C9.32934 11.2032 10.0112 11.5939 10.5957 11.5939C11.02 11.5939 11.3925 11.3891 11.658 10.99C11.9325 10.5899 11.9943 10.2175 11.8441 9.91354C11.658 9.53282 11.2064 9.34515 10.4538 9.34515V9.34336ZM1.87424 14.2152C1.65294 14.0286 1.66226 13.9084 1.67055 13.8625C1.69713 13.5833 2.11384 13.0899 3.14161 12.4871C2.36275 13.9942 1.94674 14.1879 1.87562 14.2159L1.87424 14.2152ZM5.80548 2.68024C5.83172 2.67055 6.31022 3.23822 5.85865 4.29785C5.16817 3.56404 5.76095 2.69854 5.80548 2.68024ZM4.82259 10.7389C5.31609 9.49762 5.74187 8.22846 6.0979 6.9374C6.63786 7.95002 7.28449 8.93465 7.93009 9.72408C6.87422 9.99123 5.83629 10.3299 4.82293 10.7378L4.82259 10.7389ZM11.0024 10.5063C10.8515 10.7216 10.5332 10.7216 10.4179 10.7216C10.1614 10.7216 10.0726 10.563 9.68287 10.2465C9.97093 10.2148 10.2604 10.1995 10.5501 10.2006C10.9754 10.2006 11.0462 10.2659 11.108 10.2939C11.0835 10.3703 11.0479 10.4423 11.0024 10.5074V10.5063Z" fill="#FF0000"/>
</g>
</g>
</g>
<defs>
<clipPath id="clip0_163_11678">
<rect width="13" height="18" fill="white"/>
</clipPath>
</defs>
</svg>
